{"asset":{"version":"2.0","generator":"Blockbench 4.8.3 glTF exporter"},"scenes":[{"nodes":[16],"name":"blockbench_export"}],"scene":0,"nodes":[{"name":"face","mesh":0},{"rotation":[0,-0.1950903220161282,0,0.9807852804032304],"translation":[-0.15999999999999998,0.4800000000000001,0.2],"name":"eye1","mesh":1},{"rotation":[0,-0.17364817766693036,0,0.984807753012208],"translation":[-0.15751866917464685,0.435254966062712,-0.22157769909031502],"name":"eye2","mesh":2},{"name":"mouth","mesh":3},{"name":"chin","mesh":4},{"name":"base","mesh":5},{"name":"glass1","mesh":6},{"name":"glassframe","mesh":7},{"name":"frame1","mesh":8},{"name":"frame2","mesh":9},{"name":"glass2","mesh":10},{"rotation":[0.025099319826760266,0.20957151755246434,0.14796272591195356,0.9662074492135192],"translation":[0.02999999999999994,0.26,-0.05],"name":"jmug","mesh":11},{"rotation":[0.025099319826760266,0.20957151755246434,0.14796272591195356,0.9662074492135192],"translation":[-0.26999999999999996,0.12999999999999998,0.7500000000000004],"name":"java","mesh":12},{"rotation":[-0.15165178786065703,-0.5808851812271,0.15814497871891736,0.7839415202522563],"translation":[-0.4599999999999998,0.850000000000001,0.7799999999999999],"name":"cloud1","mesh":13},{"rotation":[-0.08196863503142642,-0.9729595653896798,-0.21350815555231764,0.03232792137546035],"translation":[-0.25713281329668514,0.3998912143892271,0.850839176540397],"name":"cloud2","mesh":14},{"rotation":[-0.12827169397559804,0.27197490762960946,-0.03744275177267422,0.9529816695425918],"translation":[-0.27999999999999975,0.590000000000001,0.8500000000000002],"name":"cloud3","mesh":15},{"children":[0,1,2,3,4,5,6,7,8,9,10,11,12,13,14,15]}],"bufferViews":[{"buffer":0,"byteOffset":0,"byteLength":21120,"target":34962,"byteStride":12},{"buffer":0,"byteOffset":21120,"byteLength":21120,"target":34962,"byteStride":12},{"buffer":0,"byteOffset":42240,"byteLength":14080,"target":34962,"byteStride":8},{"buffer":0,"byteOffset":56320,"byteLength":5184,"target":34963},{"buffer":0,"byteOffset":61504,"byteLength":3168,"target":34962,"byteStride":12},{"buffer":0,"byteOffset":64672,"byteLength":3168,"target":34962,"byteStride":12},{"buffer":0,"byteOffset":67840,"byteLength":2112,"target":34962,"byteStride":8},{"buffer":0,"byteOffset":69952,"byteLength":720,"target":34963},{"buffer":0,"byteOffset":70672,"byteLength":3168,"target":34962,"byteStride":12},{"buffer":0,"byteOffset":73840,"byteLength":3168,"target":34962,"byteStride":12},{"buffer":0,"byteOffset":77008,"byteLength":2112,"target":34962,"byteStride":8},{"buffer":0,"byteOffset":79120,"byteLength":720,"target":34963},{"buffer":0,"byteOffset":79840,"byteLength":9120,"target":34962,"byteStride":12},{"buffer":0,"byteOffset":88960,"byteLength":9120,"target":34962,"byteStride":12},{"buffer":0,"byteOffset":98080,"byteLength":6080,"target":34962,"byteStride":8},{"buffer":0,"byteOffset":104160,"byteLength":2160,"target":34963},{"buffer":0,"byteOffset":106320,"byteLength":4488,"target":34962,"byteStride":12},{"buffer":0,"byteOffset":110808,"byteLength":4488,"target":34962,"byteStride":12},{"buffer":0,"byteOffset":115296,"byteLength":2992,"target":34962,"byteStride":8},{"buffer":0,"byteOffset":118288,"byteLength":1056,"target":34963},{"buffer":0,"byteOffset":119344,"byteLength":16776,"target":34962,"byteStride":12},{"buffer":0,"byteOffset":136120,"byteLength":16776,"target":34962,"byteStride":12},{"buffer":0,"byteOffset":152896,"byteLength":11184,"target":34962,"byteStride":8},{"buffer":0,"byteOffset":164080,"byteLength":4140,"target":34963},{"buffer":0,"byteOffset":168220,"byteLength":1560,"target":34962,"byteStride":12},{"buffer":0,"byteOffset":169780,"byteLength":1560,"target":34962,"byteStride":12},{"buffer":0,"byteOffset":171340,"byteLength":1040,"target":34962,"byteStride":8},{"buffer":0,"byteOffset":172380,"byteLength":360,"target":34963},{"buffer":0,"byteOffset":172740,"byteLength":288,"target":34962,"byteStride":12},{"buffer":0,"byteOffset":173028,"byteLength":288,"target":34962,"byteStride":12},{"buffer":0,"byteOffset":173316,"byteLength":192,"target":34962,"byteStride":8},{"buffer":0,"byteOffset":173508,"byteLength":72,"target":34963},{"buffer":0,"byteOffset":173580,"byteLength":288,"target":34962,"byteStride":12},{"buffer":0,"byteOffset":173868,"byteLength":288,"target":34962,"byteStride":12},{"buffer":0,"byteOffset":174156,"byteLength":192,"target":34962,"byteStride":8},{"buffer":0,"byteOffset":174348,"byteLength":72,"target":34963},{"buffer":0,"byteOffset":174420,"byteLength":288,"target":34962,"byteStride":12},{"buffer":0,"byteOffset":174708,"byteLength":288,"target":34962,"byteStride":12},{"buffer":0,"byteOffset":174996,"byteLength":192,"target":34962,"byteStride":8},{"buffer":0,"byteOffset":175188,"byteLength":72,"target":34963},{"buffer":0,"byteOffset":175260,"byteLength":1560,"target":34962,"byteStride":12},{"buffer":0,"byteOffset":176820,"byteLength":1560,"target":34962,"byteStride":12},{"buffer":0,"byteOffset":178380,"byteLength":1040,"target":34962,"byteStride":8},{"buffer":0,"byteOffset":179420,"byteLength":360,"target":34963},{"buffer":0,"byteOffset":179780,"byteLength":5280,"target":34962,"byteStride":12},{"buffer":0,"byteOffset":185060,"byteLength":5280,"target":34962,"byteStride":12},{"buffer":0,"byteOffset":190340,"byteLength":3520,"target":34962,"byteStride":8},{"buffer":0,"byteOffset":193860,"byteLength":1248,"target":34963},{"buffer":0,"byteOffset":195108,"byteLength":1440,"target":34962,"byteStride":12},{"buffer":0,"byteOffset":196548,"byteLength":1440,"target":34962,"byteStride":12},{"buffer":0,"byteOffset":197988,"byteLength":960,"target":34962,"byteStride":8},{"buffer":0,"byteOffset":198948,"byteLength":288,"target":34963},{"buffer":0,"byteOffset":199236,"byteLength":1344,"target":34962,"byteStride":12},{"buffer":0,"byteOffset":200580,"byteLength":1344,"target":34962,"byteStride":12},{"buffer":0,"byteOffset":201924,"byteLength":896,"target":34962,"byteStride":8},{"buffer":0,"byteOffset":202820,"byteLength":288,"target":34963},{"buffer":0,"byteOffset":203108,"byteLength":1344,"target":34962,"byteStride":12},{"buffer":0,"byteOffset":204452,"byteLength":1344,"target":34962,"byteStride":12},{"buffer":0,"byteOffset":205796,"byteLength":896,"target":34962,"byteStride":8},{"buffer":0,"byteOffset":206692,"byteLength":288,"target":34963},{"buffer":0,"byteOffset":206980,"byteLength":1344,"target":34962,"byteStride":12},{"buffer":0,"byteOffset":208324,"byteLength":1344,"target":34962,"byteStride":12},{"buffer":0,"byteOffset":209668,"byteLength":896,"target":34962,"byteStride":8},{"buffer":0,"byteOffset":210564,"byteLength":288,"target":34963}],"buffers":[{"byteLength":210852,"uri":"data:application/octet-stream;base64,"}],"accessors":[{"bufferView":0,"componentType":5126,"count":1760,"max":[0.4483700692653656,0.800000011920929,0.5],"min":[-0.2283700406551361,0,-0.5111702680587769],"type":"VEC3"},{"bufferView":1,"componentType":5126,"count":1760,"max":[0.9840951561927795,0.9875743389129639,0.9704521298408508],"min":[-0.9840951561927795,-0.9875743389129639,-0.9258475303649902],"type":"VEC3"},{"bufferView":2,"componentType":5126,"count":1760,"max":[0.984375,0.484375],"min":[0.015625,0.015625],"type":"VEC2"},{"bufferView":3,"componentType":5123,"count":2592,"max":[1759],"min":[0],"type":"SCALAR"},{"bufferView":4,"componentType":5126,"count":264,"max":[0.03999999910593033,0.12000000476837158,0.03999999910593033],"min":[-0.03999999910593033,-0.12000000476837158,-0.03999999910593033],"type":"VEC3"},{"bufferView":5,"componentType":5126,"count":264,"max":[0.9623510837554932,0.7686479091644287,0.9623510837554932],"min":[-0.9623510837554932,-0.7686479091644287,-0.9623510837554932],"type":"VEC3"},{"bufferView":6,"componentType":5126,"count":264,"max":[0.984375,0.296875],"min":[0.015625,0.015625],"type":"VEC2"},{"bufferView":7,"componentType":5123,"count":360,"max":[263],"min":[0],"type":"SCALAR"},{"bufferView":8,"componentType":5126,"count":264,"max":[0.039586592465639114,0.06995736062526703,0.03961072117090225],"min":[-0.04019138962030411,-0.06995736062526703,-0.03961072117090225],"type":"VEC3"},{"bufferView":9,"componentType":5126,"count":264,"max":[0.9863457083702087,0.9137744307518005,0.9825547933578491],"min":[-0.9837855696678162,-0.9993908405303955,-0.9825547933578491],"type":"VEC3"},{"bufferView":10,"componentType":5126,"count":264,"max":[0.984375,0.296875],"min":[0.015625,0.015625],"type":"VEC2"},{"bufferView":11,"componentType":5123,"count":360,"max":[263],"min":[0],"type":"SCALAR"},{"bufferView":12,"componentType":5126,"count":760,"max":[-0.08351992815732956,0.25851479172706604,0.3843172788619995],"min":[-0.17999999225139618,0.14898625016212463,-0.3803742825984955],"type":"VEC3"},{"bufferView":13,"componentType":5126,"count":760,"max":[0.9945390224456787,0.9998626112937927,0.9300074577331543],"min":[-0.994728684425354,-0.9999127388000488,-0.9983500838279724],"type":"VEC3"},{"bufferView":14,"componentType":5126,"count":760,"max":[0.984375,0.796875],"min":[0.015625,0.015625],"type":"VEC2"},{"bufferView":15,"componentType":5123,"count":1080,"max":[759],"min":[0],"type":"SCALAR"},{"bufferView":16,"componentType":5126,"count":374,"max":[-0.12443871796131134,0.13948515057563782,0.19985857605934143],"min":[-0.12443871796131134,0.08849497884511948,-0.04542410373687744],"type":"VEC3"},{"bufferView":17,"componentType":5126,"count":374,"max":[1,0,0],"min":[-1,0,0],"type":"VEC3"},{"bufferView":18,"componentType":5126,"count":374,"max":[0.984375,0.421875],"min":[0.015625,0.015625],"type":"VEC2"},{"bufferView":19,"componentType":5123,"count":528,"max":[373],"min":[0],"type":"SCALAR"},{"bufferView":20,"componentType":5126,"count":1398,"max":[0.925197422504425,0.9188044667243958,0.7633594274520874],"min":[-0.3577975332736969,0.48475050926208496,-0.5566644072532654],"type":"VEC3"},{"bufferView":21,"componentType":5126,"count":1398,"max":[0.9998849034309387,0.9984758496284485,0.9912794828414917],"min":[-0.9966358542442322,-0.9955676794052124,-0.9980751276016235],"type":"VEC3"},{"bufferView":22,"componentType":5126,"count":1398,"max":[0.9921875,0.3671875],"min":[0.0078125,0.0078125],"type":"VEC2"},{"bufferView":23,"componentType":5123,"count":2070,"max":[1397],"min":[0],"type":"SCALAR"},{"bufferView":24,"componentType":5126,"count":130,"max":[-0.20436613261699677,0.4351452887058258,-0.05511217191815376],"min":[-0.363058865070343,0.17849311232566833,-0.47279801964759827],"type":"VEC3"},{"bufferView":25,"componentType":5126,"count":130,"max":[0.9881252646446228,0.9743546843528748,0.9753352999687195],"min":[-0.9978885054588318,-0.9836767911911011,-0.9753352999687195],"type":"VEC3"},{"bufferView":26,"componentType":5126,"count":130,"max":[0.984375,0.171875],"min":[0.015625,0.015625],"type":"VEC2"},{"bufferView":27,"componentType":5123,"count":180,"max":[129],"min":[0],"type":"SCALAR"},{"bufferView":28,"componentType":5126,"count":24,"max":[-0.2907257676124573,0.4496046006679535,0.07754363119602203],"min":[-0.3355901837348938,0.356533408164978,-0.08282433450222015],"type":"VEC3"},{"bufferView":29,"componentType":5126,"count":24,"max":[0.998724639415741,0.9747796654701233,0.9757104516029358],"min":[-0.998724639415741,-0.9747796654701233,-0.9757104516029358],"type":"VEC3"},{"bufferView":30,"componentType":5126,"count":24,"max":[0.359375,0.046875],"min":[0.015625,0.015625],"type":"VEC2"},{"bufferView":31,"componentType":5123,"count":36,"max":[23],"min":[0],"type":"SCALAR"},{"bufferView":32,"componentType":5126,"count":24,"max":[0.3236808180809021,0.6460022330284119,0.47216081619262695],"min":[-0.3023566007614136,0.4727415442466736,0.41762980818748474],"type":"VEC3"},{"bufferView":33,"componentType":5126,"count":24,"max":[0.9835712313652039,0.9648875594139099,0.9810337424278259],"min":[-0.981830358505249,-0.9587358832359314,-0.9810281991958618],"type":"VEC3"},{"bufferView":34,"componentType":5126,"count":24,"max":[0.359375,0.046875],"min":[0.015625,0.015625],"type":"VEC2"},{"bufferView":35,"componentType":5123,"count":36,"max":[23],"min":[0],"type":"SCALAR"},{"bufferView":36,"componentType":5126,"count":24,"max":[0.3260064721107483,0.46293869614601135,-0.4254918694496155],"min":[-0.29650646448135376,0.2996993064880371,-0.5817612409591675],"type":"VEC3"},{"bufferView":37,"componentType":5126,"count":24,"max":[0.9715999364852905,0.9648875594139099,0.969585657119751],"min":[-0.9696726202964783,-0.9593711495399475,-0.9695806503295898],"type":"VEC3"},{"bufferView":38,"componentType":5126,"count":24,"max":[0.359375,0.046875],"min":[0.015625,0.015625],"type":"VEC2"},{"bufferView":39,"componentType":5123,"count":36,"max":[23],"min":[0],"type":"SCALAR"},{"bufferView":40,"componentType":5126,"count":130,"max":[-0.2285408079624176,0.5324386358261108,0.4699268341064453],"min":[-0.3651178479194641,0.2689397633075714,0.05393301323056221],"type":"VEC3"},{"bufferView":41,"componentType":5126,"count":130,"max":[0.9904984831809998,0.971148669719696,0.9811939001083374],"min":[-0.9904984831809998,-0.9780727028846741,-0.9811939001083374],"type":"VEC3"},{"bufferView":42,"componentType":5126,"count":130,"max":[0.984375,0.171875],"min":[0.015625,0.015625],"type":"VEC2"},{"bufferView":43,"componentType":5123,"count":180,"max":[129],"min":[0],"type":"SCALAR"},{"bufferView":44,"componentType":5126,"count":440,"max":[-0.21121461689472198,0.30000001192092896,0.8500000238418579],"min":[-0.8500000238418579,0,0.3499999940395355],"type":"VEC3"},{"bufferView":45,"componentType":5126,"count":440,"max":[1,1,1],"min":[-1,-1,-1],"type":"VEC3"},{"bufferView":46,"componentType":5126,"count":440,"max":[0.984375,0.484375],"min":[0.015625,0.015625],"type":"VEC2"},{"bufferView":47,"componentType":5123,"count":624,"max":[439],"min":[0],"type":"SCALAR"},{"bufferView":48,"componentType":5126,"count":120,"max":[0.20999999344348907,0.20000000298023224,0.20999999344348907],"min":[-0.20999999344348907,0,-0.20999999344348907],"type":"VEC3"},{"bufferView":49,"componentType":5126,"count":120,"max":[0.9950371980667114,1,0.9950371980667114],"min":[-0.9950371980667114,-1,-0.9950371980667114],"type":"VEC3"},{"bufferView":50,"componentType":5126,"count":120,"max":[0.984375,0.171875],"min":[0.015625,0.015625],"type":"VEC2"},{"bufferView":51,"componentType":5123,"count":144,"max":[119],"min":[0],"type":"SCALAR"},{"bufferView":52,"componentType":5126,"count":112,"max":[0.10000000149011612,0.07999999821186066,-0.10000000149011612],"min":[-0.10000000149011612,-0.07999999821186066,-0.30000001192092896],"type":"VEC3"},{"bufferView":53,"componentType":5126,"count":112,"max":[0.8880271315574646,0.9492406845092773,0.8880271315574646],"min":[-0.8880271315574646,-0.9492406845092773,-0.8880271315574646],"type":"VEC3"},{"bufferView":54,"componentType":5126,"count":112,"max":[0.984375,0.109375],"min":[0.015625,0.015625],"type":"VEC2"},{"bufferView":55,"componentType":5123,"count":144,"max":[111],"min":[0],"type":"SCALAR"},{"bufferView":56,"componentType":5126,"count":112,"max":[0.14000000059604645,0.12999999523162842,0.10999999940395355],"min":[-0.14000000059604645,-0.12999999523162842,-0.10999999940395355],"type":"VEC3"},{"bufferView":57,"componentType":5126,"count":112,"max":[0.9132576584815979,0.9333420395851135,0.9437145590782166],"min":[-0.9132576584815979,-0.9333420395851135,-0.9437145590782166],"type":"VEC3"},{"bufferView":58,"componentType":5126,"count":112,"max":[0.984375,0.234375],"min":[0.015625,0.140625],"type":"VEC2"},{"bufferView":59,"componentType":5123,"count":144,"max":[111],"min":[0],"type":"SCALAR"},{"bufferView":60,"componentType":5126,"count":112,"max":[0.12999999523162842,0.17999999225139618,-0.07000000029802322],"min":[-0.12999999523162842,-0.07999999821186066,-0.32999998331069946],"type":"VEC3"},{"bufferView":61,"componentType":5126,"count":112,"max":[0.9238795042037964,0.9238795638084412,0.9238795042037964],"min":[-0.9238795042037964,-0.9238795638084412,-0.9238795042037964],"type":"VEC3"},{"bufferView":62,"componentType":5126,"count":112,"max":[0.984375,0.359375],"min":[0.015625,0.265625],"type":"VEC2"},{"bufferView":63,"componentType":5123,"count":144,"max":[111],"min":[0],"type":"SCALAR"}],"materials":[{"pbrMetallicRoughness":{"metallicFactor":0,"roughnessFactor":1,"baseColorTexture":{"index":0}},"alphaMode":"MASK","alphaCutoff":0.05,"doubleSided":true},{"pbrMetallicRoughness":{"metallicFactor":0,"roughnessFactor":1,"baseColorTexture":{"index":1}},"alphaMode":"MASK","alphaCutoff":0.05,"doubleSided":true},{"pbrMetallicRoughness":{"metallicFactor":0,"roughnessFactor":1,"baseColorTexture":{"index":2}},"alphaMode":"MASK","alphaCutoff":0.05,"doubleSided":true},{"pbrMetallicRoughness":{"metallicFactor":0,"roughnessFactor":1,"baseColorTexture":{"index":3}},"alphaMode":"MASK","alphaCutoff":0.05,"doubleSided":true},{"pbrMetallicRoughness":{"metallicFactor":0,"roughnessFactor":1,"baseColorTexture":{"index":4}},"alphaMode":"MASK","alphaCutoff":0.05,"doubleSided":true},{"pbrMetallicRoughness":{"metallicFactor":0,"roughnessFactor":1,"baseColorTexture":{"index":5}},"alphaMode":"MASK","alphaCutoff":0.05,"doubleSided":true},{"pbrMetallicRoughness":{"metallicFactor":0,"roughnessFactor":1,"baseColorTexture":{"index":6}},"alphaMode":"MASK","alphaCutoff":0.05,"doubleSided":true},{"pbrMetallicRoughness":{"metallicFactor":0,"roughnessFactor":1,"baseColorTexture":{"index":7}},"alphaMode":"MASK","alphaCutoff":0.05,"doubleSided":true},{"pbrMetallicRoughness":{"metallicFactor":0,"roughnessFactor":1,"baseColorTexture":{"index":8}},"alphaMode":"MASK","alphaCutoff":0.05,"doubleSided":true},{"pbrMetallicRoughness":{"metallicFactor":0,"roughnessFactor":1,"baseColorTexture":{"index":9}},"alphaMode":"MASK","alphaCutoff":0.05,"doubleSided":true},{"pbrMetallicRoughness":{"metallicFactor":0,"roughnessFactor":1,"baseColorTexture":{"index":10}},"alphaMode":"MASK","alphaCutoff":0.05,"doubleSided":true}],"textures":[{"sampler":0,"source":0,"name":"face.png"},{"sampler":1,"source":1,"name":"eye.png"},{"sampler":2,"source":2,"name":"mouth.png"},{"sampler":3,"source":3,"name":"chin.png"},{"sampler":4,"source":4,"name":"hat.png"},{"sampler":5,"source":5,"name":"shades.png"},{"sampler":6,"source":6,"name":"glassframe.png"},{"sampler":7,"source":7,"name":"frame1.png"},{"sampler":8,"source":8,"name":"jmug.png"},{"sampler":9,"source":9,"name":"java.png"},{"sampler":10,"source":10,"name":"steam.png"}],"samplers":[{"magFilter":9728,"minFilter":9728,"wrapS":33071,"wrapT":33071},{"magFilter":9728,"minFilter":9728,"wrapS":33071,"wrapT":33071},{"magFilter":9728,"minFilter":9728,"wrapS":33071,"wrapT":33071},{"magFilter":9728,"minFilter":9728,"wrapS":33071,"wrapT":33071},{"magFilter":9728,"minFilter":9728,"wrapS":33071,"wrapT":33071},{"magFilter":9728,"minFilter":9728,"wrapS":33071,"wrapT":33071},{"magFilter":9728,"minFilter":9728,"wrapS":33071,"wrapT":33071},{"magFilter":9728,"minFilter":9728,"wrapS":33071,"wrapT":33071},{"magFilter":9728,"minFilter":9728,"wrapS":33071,"wrapT":33071},{"magFilter":9728,"minFilter":9728,"wrapS":33071,"wrapT":33071},{"magFilter":9728,"minFilter":9728,"wrapS":33071,"wrapT":33071}],"images":[{"mimeType":"image/png","uri":"data:image/png;base64,"},{"mimeType":"image/png","uri":"data:image/png;base64,"},{"mimeType":"image/png","uri":"data:image/png;base64,"},{"mimeType":"image/png","uri":"data:image/png;base64,"},{"mimeType":"image/png","uri":"data:image/png;base64,"},{"mimeType":"image/png","uri":"data:image/png;base64,"},{"mimeType":"image/png","uri":"data:image/png;base64,"},{"mimeType":"image/png","uri":"data:image/png;base64,"},{"mimeType":"image/png","uri":"data:image/png;base64,"},{"mimeType":"image/png","uri":"data:image/png;base64,"},{"mimeType":"image/png","uri":"data:image/png;base64,"}],"meshes":[{"primitives":[{"mode":4,"attributes":{"POSITION":0,"NORMAL":1,"TEXCOORD_0":2},"indices":3,"material":0}]},{"primitives":[{"mode":4,"attributes":{"POSITION":4,"NORMAL":5,"TEXCOORD_0":6},"indices":7,"material":1}]},{"primitives":[{"mode":4,"attributes":{"POSITION":8,"NORMAL":9,"TEXCOORD_0":10},"indices":11,"material":1}]},{"primitives":[{"mode":4,"attributes":{"POSITION":12,"NORMAL":13,"TEXCOORD_0":14},"indices":15,"material":2}]},{"primitives":[{"mode":4,"attributes":{"POSITION":16,"NORMAL":17,"TEXCOORD_0":18},"indices":19,"material":3}]},{"primitives":[{"mode":4,"attributes":{"POSITION":20,"NORMAL":21,"TEXCOORD_0":22},"indices":23,"material":4}]},{"primitives":[{"mode":4,"attributes":{"POSITION":24,"NORMAL":25,"TEXCOORD_0":26},"indices":27,"material":5}]},{"primitives":[{"mode":4,"attributes":{"POSITION":28,"NORMAL":29,"TEXCOORD_0":30},"indices":31,"material":6}]},{"primitives":[{"mode":4,"attributes":{"POSITION":32,"NORMAL":33,"TEXCOORD_0":34},"indices":35,"material":7}]},{"primitives":[{"mode":4,"attributes":{"POSITION":36,"NORMAL":37,"TEXCOORD_0":38},"indices":39,"material":7}]},{"primitives":[{"mode":4,"attributes":{"POSITION":40,"NORMAL":41,"TEXCOORD_0":42},"indices":43,"material":5}]},{"primitives":[{"mode":4,"attributes":{"POSITION":44,"NORMAL":45,"TEXCOORD_0":46},"indices":47,"material":8}]},{"primitives":[{"mode":4,"attributes":{"POSITION":48,"NORMAL":49,"TEXCOORD_0":50},"indices":51,"material":9}]},{"primitives":[{"mode":4,"attributes":{"POSITION":52,"NORMAL":53,"TEXCOORD_0":54},"indices":55,"material":10}]},{"primitives":[{"mode":4,"attributes":{"POSITION":56,"NORMAL":57,"TEXCOORD_0":58},"indices":59,"material":10}]},{"primitives":[{"mode":4,"attributes":{"POSITION":60,"NORMAL":61,"TEXCOORD_0":62},"indices":63,"material":10}]}]}