{"asset":{"version":"2.0","generator":"Blockbench 4.8.3 glTF exporter"},"scenes":[{"nodes":[3],"name":"blockbench_export"}],"scene":0,"nodes":[{"rotation":[0,0,-0.19509032201612825,0.9807852804032304],"translation":[-0.09375,0.140625,0],"name":"sphere","mesh":0},{"rotation":[0.6532814771698321,0.27059805007309834,0.2705980500730982,0.6532814877065446],"translation":[-0.03125,0.09375,-0.109375],"name":"cylinder","mesh":1},{"rotation":[0.6532814771698321,0.27059805007309834,0.2705980500730982,0.6532814877065446],"translation":[-0.03125,0.09375,0.046875],"name":"cylinder","mesh":2},{"children":[0,1,2]}],"bufferViews":[{"buffer":0,"byteOffset":0,"byteLength":11232,"target":34962,"byteStride":12},{"buffer":0,"byteOffset":11232,"byteLength":11232,"target":34962,"byteStride":12},{"buffer":0,"byteOffset":22464,"byteLength":7488,"target":34962,"byteStride":8},{"buffer":0,"byteOffset":29952,"byteLength":2592,"target":34963},{"buffer":0,"byteOffset":32544,"byteLength":2160,"target":34962,"byteStride":12},{"buffer":0,"byteOffset":34704,"byteLength":2160,"target":34962,"byteStride":12},{"buffer":0,"byteOffset":36864,"byteLength":1440,"target":34962,"byteStride":8},{"buffer":0,"byteOffset":38304,"byteLength":480,"target":34963},{"buffer":0,"byteOffset":38784,"byteLength":2160,"target":34962,"byteStride":12},{"buffer":0,"byteOffset":40944,"byteLength":2160,"target":34962,"byteStride":12},{"buffer":0,"byteOffset":43104,"byteLength":1440,"target":34962,"byteStride":8},{"buffer":0,"byteOffset":44544,"byteLength":480,"target":34963}],"buffers":[{"byteLength":45024,"uri":"data:application/octet-stream;base64,"}],"accessors":[{"bufferView":0,"componentType":5126,"count":936,"max":[0.4129813313484192,0.3289198875427246,0.09375],"min":[-0.09375,-0.09375,-0.09375],"type":"VEC3"},{"bufferView":1,"componentType":5126,"count":936,"max":[0.9848077297210693,0.9848077297210693,1],"min":[-0.9848077297210693,-0.9848077297210693,-1],"type":"VEC3"},{"bufferView":2,"componentType":5126,"count":936,"max":[0.984375,0.984375],"min":[0.015625,0.015625],"type":"VEC2"},{"bufferView":3,"componentType":5123,"count":1296,"max":[935],"min":[0],"type":"SCALAR"},{"bufferView":4,"componentType":5126,"count":180,"max":[0.09857458621263504,0.06875000149011612,0.09375],"min":[-0.09857458621263504,-0.0062500000931322575,-0.09375],"type":"VEC3"},{"bufferView":5,"componentType":5126,"count":180,"max":[0.9510565400123596,1,1],"min":[-0.9510565400123596,-1,-1],"type":"VEC3"},{"bufferView":6,"componentType":5126,"count":180,"max":[0.984375,0.234375],"min":[0.015625,0.015625],"type":"VEC2"},{"bufferView":7,"componentType":5123,"count":240,"max":[179],"min":[0],"type":"SCALAR"},{"bufferView":8,"componentType":5126,"count":180,"max":[0.09857458621263504,0.06875000149011612,0.09375],"min":[-0.09857458621263504,-0.0062500000931322575,-0.09375],"type":"VEC3"},{"bufferView":9,"componentType":5126,"count":180,"max":[0.9510565400123596,1,1],"min":[-0.9510565400123596,-1,-1],"type":"VEC3"},{"bufferView":10,"componentType":5126,"count":180,"max":[0.984375,0.234375],"min":[0.015625,0.015625],"type":"VEC2"},{"bufferView":11,"componentType":5123,"count":240,"max":[179],"min":[0],"type":"SCALAR"}],"materials":[{"pbrMetallicRoughness":{"metallicFactor":0,"roughnessFactor":1,"baseColorTexture":{"index":0}},"alphaMode":"MASK","alphaCutoff":0.05,"doubleSided":true},{"pbrMetallicRoughness":{"metallicFactor":0,"roughnessFactor":1,"baseColorTexture":{"index":1}},"alphaMode":"MASK","alphaCutoff":0.05,"doubleSided":true}],"textures":[{"sampler":0,"source":0,"name":"barrel.png"},{"sampler":1,"source":1,"name":"wheel.png"}],"samplers":[{"magFilter":9728,"minFilter":9728,"wrapS":33071,"wrapT":33071},{"magFilter":9728,"minFilter":9728,"wrapS":33071,"wrapT":33071}],"images":[{"mimeType":"image/png","uri":"data:image/png;base64,"},{"mimeType":"image/png","uri":"data:image/png;base64,"}],"meshes":[{"primitives":[{"mode":4,"attributes":{"POSITION":0,"NORMAL":1,"TEXCOORD_0":2},"indices":3,"material":0}]},{"primitives":[{"mode":4,"attributes":{"POSITION":4,"NORMAL":5,"TEXCOORD_0":6},"indices":7,"material":1}]},{"primitives":[{"mode":4,"attributes":{"POSITION":8,"NORMAL":9,"TEXCOORD_0":10},"indices":11,"material":1}]}]}