{
	"asset":{
		"generator":"Khronos glTF Blender I/O v4.0.44",
		"version":"2.0"
	},
	"extensionsUsed":[
		"KHR_materials_specular",
		"KHR_materials_ior",
		"KHR_materials_clearcoat",
		"KHR_materials_sheen"
	],
	"extensionsRequired":[

	],
	"scene":0,
	"scenes":[
		{
			"name":"Scene",
			"nodes":[
				0,
				1,
				2,
				3,
				4,
				5
			]
		}
	],
	"nodes":[
		{
			"name":"Node_1",
			"scale":[
				0.05000000074505806,
				0.05000000074505806,
				0.05000000074505806
			],
			"translation":[
				0.01781708002090454,
				0.1373327076435089,
				0.1574830710887909
			]
		},
		{
			"mesh":0,
			"name":"Landscape.002",
			"scale":[
				0.5199999809265137,
				0.5,
				0.5
			]
		},
		{
			"mesh":1,
			"name":"Sphere",
			"scale":[
				0.5,
				0.5,
				0.5
			]
		},
		{
			"name":"Node_3.002",
			"rotation":[
				0,
				0.994601309299469,
				0,
				0.10377029329538345
			],
			"scale":[
				0.05000000447034836,
				0.05000000074505806,
				0.05000000447034836
			],
			"translation":[
				0.05527326092123985,
				0.09647867828607559,
				0.1655111461877823
			]
		},
		{
			"name":"Node_3",
			"scale":[
				0.05000000074505806,
				0.05000000074505806,
				0.05000000074505806
			],
			"translation":[
				-0.31599584221839905,
				0.10981990396976471,
				0.05729278177022934
			]
		},
		{
			"mesh":2,
			"name":"Plane",
			"scale":[
				0.522831916809082,
				1,
				0.522831916809082
			],
			"translation":[
				0,
				0.07758050411939621,
				0
			]
		}
	],
	"materials":[
		{
			"doubleSided":true,
			"extensions":{
				"KHR_materials_specular":{
					"specularFactor":0.4211651086807251
				},
				"KHR_materials_ior":{
					"ior":1.4500000476837158
				}
			},
			"name":"Material.001",
			"normalTexture":{
				"index":0,
				"scale":0.40000003576278687
			},
			"pbrMetallicRoughness":{
				"baseColorTexture":{
					"index":1
				},
				"metallicFactor":0.4931206703186035,
				"roughnessFactor":0.5882353186607361
			}
		},
		{
			"doubleSided":true,
			"emissiveFactor":[
				0.10603540407855228,
				0.10734733952820719,
				0.17902844819020025
			],
			"extensions":{
				"KHR_materials_specular":{
					"specularColorFactor":[
						2.0,
						2.0,
						2.0
					]
				},
				"KHR_materials_ior":{
					"ior":1.4500000476837158
				}
			},
			"name":"Material.002",
			"pbrMetallicRoughness":{
				"baseColorTexture":{
					"index":2
				},
				"metallicFactor":0.772698163986206,
				"roughnessFactor":0.8532818555831909
			}
		},
		{
			"alphaMode":"BLEND",
			"doubleSided":true,
			"emissiveFactor":[
				0.011035079136490822,
				0.009873096831142902,
				0.04088117554783821
			],
			"extensions":{
				"KHR_materials_clearcoat":{
					"clearcoatFactor":0.5892350673675537,
					"clearcoatRoughnessFactor":0.2509631812572479
				},
				"KHR_materials_specular":{
					"specularColorFactor":[
						1.9919028282165527,
						1.9919028282165527,
						1.9919028282165527
					]
				},
				"KHR_materials_sheen":{
					"sheenColorFactor":[
						1.0,
						1.0,
						1.0
					],
					"sheenRoughnessFactor":0.5
				},
				"KHR_materials_ior":{
					"ior":1.4500000476837158
				}
			},
			"name":"Material",
			"normalTexture":{
				"index":3
			},
			"pbrMetallicRoughness":{
				"baseColorFactor":[
					1,
					1,
					1,
					0.7004048824310303
				],
				"baseColorTexture":{
					"index":4
				},
				"metallicFactor":0.2591093182563782,
				"roughnessFactor":0
			}
		}
	],
	"meshes":[
		{
			"name":"Landscape.002",
			"primitives":[
				{
					"attributes":{
						"POSITION":0,
						"NORMAL":1,
						"TEXCOORD_0":2
					},
					"indices":3,
					"material":0
				}
			]
		},
		{
			"name":"Sphere",
			"primitives":[
				{
					"attributes":{
						"POSITION":4,
						"NORMAL":5,
						"TEXCOORD_0":6
					},
					"indices":7,
					"material":1
				}
			]
		},
		{
			"name":"Plane",
			"primitives":[
				{
					"attributes":{
						"POSITION":8,
						"NORMAL":9,
						"TEXCOORD_0":10
					},
					"indices":11,
					"material":2
				}
			]
		}
	],
	"textures":[
		{
			"sampler":0,
			"source":0
		},
		{
			"sampler":0,
			"source":1
		},
		{
			"sampler":0,
			"source":2
		},
		{
			"sampler":0,
			"source":3
		},
		{
			"extensions":{
			
			},
			"sampler":0
		}
	],
	"images":[
		{
			"mimeType":"image/jpeg",
			"name":"imgonline-com-ua-tile-3y35Y5N5Ipw5p01",
			"uri":"imgonline-com-ua-tile-3y35Y5N5Ipw5p01.jpg"
		},
		{
			"mimeType":"image/jpeg",
			"name":"dirt(1)",
			"uri":"dirt1.jpg"
		},
		{
			"mimeType":"image/png",
			"name":"cloud_sb",
			"uri":"cloud_sb.png"
		},
		{
			"mimeType":"image/jpeg",
			"name":"waternormal",
			"uri":"waternormal.jpg"
		},
		{
			"mimeType":"image/jpeg",
			"name":"water",
			"uri":"water.jpg"
		}
	],
	"accessors":[
		{
			"bufferView":0,
			"componentType":5126,
			"count":16384,
			"max":[
				1,
				0.2777552604675293,
				1
			],
			"min":[
				-1,
				0.02001439779996872,
				-1
			],
			"type":"VEC3"
		},
		{
			"bufferView":1,
			"componentType":5126,
			"count":16384,
			"type":"VEC3"
		},
		{
			"bufferView":2,
			"componentType":5126,
			"count":16384,
			"type":"VEC2"
		},
		{
			"bufferView":3,
			"componentType":5123,
			"count":96774,
			"type":"SCALAR"
		},
		{
			"bufferView":4,
			"componentType":5126,
			"count":265,
			"max":[
				0.9999997019767761,
				1,
				0.9999993443489075
			],
			"min":[
				-0.9999990463256836,
				0,
				-1
			],
			"type":"VEC3"
		},
		{
			"bufferView":5,
			"componentType":5126,
			"count":265,
			"type":"VEC3"
		},
		{
			"bufferView":6,
			"componentType":5126,
			"count":265,
			"type":"VEC2"
		},
		{
			"bufferView":7,
			"componentType":5123,
			"count":1440,
			"type":"SCALAR"
		},
		{
			"bufferView":8,
			"componentType":5126,
			"count":2708,
			"max":[
				1,
				0,
				1
			],
			"min":[
				-1,
				0,
				-1
			],
			"type":"VEC3"
		},
		{
			"bufferView":9,
			"componentType":5126,
			"count":2708,
			"type":"VEC3"
		},
		{
			"bufferView":10,
			"componentType":5126,
			"count":2708,
			"type":"VEC2"
		},
		{
			"bufferView":11,
			"componentType":5123,
			"count":15606,
			"type":"SCALAR"
		}
	],
	"bufferViews":[
		{
			"buffer":0,
			"byteLength":196608,
			"byteOffset":0,
			"target":34962
		},
		{
			"buffer":0,
			"byteLength":196608,
			"byteOffset":196608,
			"target":34962
		},
		{
			"buffer":0,
			"byteLength":131072,
			"byteOffset":393216,
			"target":34962
		},
		{
			"buffer":0,
			"byteLength":193548,
			"byteOffset":524288,
			"target":34963
		},
		{
			"buffer":0,
			"byteLength":3180,
			"byteOffset":717836,
			"target":34962
		},
		{
			"buffer":0,
			"byteLength":3180,
			"byteOffset":721016,
			"target":34962
		},
		{
			"buffer":0,
			"byteLength":2120,
			"byteOffset":724196,
			"target":34962
		},
		{
			"buffer":0,
			"byteLength":2880,
			"byteOffset":726316,
			"target":34963
		},
		{
			"buffer":0,
			"byteLength":32496,
			"byteOffset":729196,
			"target":34962
		},
		{
			"buffer":0,
			"byteLength":32496,
			"byteOffset":761692,
			"target":34962
		},
		{
			"buffer":0,
			"byteLength":21664,
			"byteOffset":794188,
			"target":34962
		},
		{
			"buffer":0,
			"byteLength":31212,
			"byteOffset":815852,
			"target":34963
		}
	],
	"samplers":[
		{
			"magFilter":9729,
			"minFilter":9987
		}
	],
	"buffers":[
		{
			"byteLength":847064,
			"uri":"terrain-exp.bin"
		}
	]
}
